<svg width="107" height="107" viewBox="0 0 107 107" fill="none" xmlns="http://www.w3.org/2000/svg">
<rect x="0.324219" y="53.5264" width="74.7745" height="74.7745" transform="rotate(-45 0.324219 53.5264)" fill="#F5F5F5"/>
<path d="M66.5087 41.6523H40.2491C39.975 41.6523 39.7617 41.8656 39.7617 42.1398V62.1848C39.7617 62.459 39.975 62.6722 40.2491 62.6722H43.5087V64.1649C43.5087 64.4391 43.722 64.6523 43.9962 64.6523H48.0173C48.2915 64.6523 48.5048 64.4391 48.5048 64.1649V62.6722H58.2531V64.1649C58.2531 64.4391 58.4664 64.6523 58.7405 64.6523H62.7617C63.0359 64.6523 63.2491 64.4391 63.2491 64.1649V62.6722H66.5087C66.7829 62.6722 66.9962 62.459 66.9962 62.1848V42.1398C66.9962 41.8656 66.7829 41.6523 66.5087 41.6523ZM47.5299 63.647H44.4836V62.6417H47.5299V63.647ZM62.2743 63.647H59.2279V62.6417H62.2743V63.647ZM62.7617 61.6974H58.7405H48.0173H43.9962H40.7366V42.6272H65.9909V61.6974H62.7617Z" fill="black"/>
<path d="M64.1931 43.9062H43.9044C43.6302 43.9062 43.417 44.1195 43.417 44.3937V46.0082H42.6554C42.3812 46.0082 42.168 46.2215 42.168 46.4957V50.0599C42.168 50.3341 42.3812 50.5473 42.6554 50.5473H43.417V53.746H42.6554C42.3812 53.746 42.168 53.9592 42.168 54.2334V57.7976C42.168 58.0718 42.3812 58.2851 42.6554 58.2851H43.417V59.8996C43.417 60.1738 43.6302 60.387 43.9044 60.387H64.1931C64.4673 60.387 64.6806 60.1738 64.6806 59.8996V44.3937C64.6806 44.1195 64.4673 43.9062 64.1931 43.9062ZM43.1428 49.5725V46.9831H43.9044H44.666V49.5725H43.9044H43.1428ZM43.1428 57.3102V54.7208H43.9044H44.666V57.3102H43.9044H43.1428ZM63.7057 59.4122H44.3918V58.2851H45.1534C45.4276 58.2851 45.6408 58.0718 45.6408 57.7976V54.2334C45.6408 53.9592 45.4276 53.746 45.1534 53.746H44.3918V50.5473H45.1534C45.4276 50.5473 45.6408 50.3341 45.6408 50.0599V46.4957C45.6408 46.2215 45.4276 46.0082 45.1534 46.0082H44.3918V44.8811H63.7057V59.4122Z" fill="black"/>
<path d="M58.4654 48.5977C56.5157 48.5977 54.9316 50.1818 54.9316 52.1314C54.9621 54.0811 56.5462 55.6652 58.4654 55.6652C60.4151 55.6652 61.9992 54.0811 61.9992 52.1314C61.9992 50.1818 60.4151 48.5977 58.4654 48.5977ZM58.4654 54.7208C57.0641 54.7208 55.9065 53.5632 55.9065 52.1619C55.9065 50.7606 57.0641 49.603 58.4654 49.603C59.8667 49.603 61.0244 50.7606 61.0244 52.1619C61.0244 53.5632 59.8667 54.7208 58.4654 54.7208Z" fill="black"/>
<path d="M58.4673 50.4873C57.5534 50.4873 56.8223 51.2184 56.8223 52.1323C56.8527 53.0462 57.5839 53.7774 58.4673 53.7774C59.3812 53.7774 60.1123 53.0462 60.1123 52.1323C60.1123 51.2184 59.3812 50.4873 58.4673 50.4873ZM58.4673 52.833C58.1017 52.833 57.7971 52.5284 57.7971 52.1628C57.8276 51.7972 58.1017 51.4926 58.4673 51.4926C58.8329 51.4926 59.1375 51.7972 59.1375 52.1628C59.1375 52.5284 58.8329 52.833 58.4673 52.833Z" fill="black"/>
</svg>
